<svg height="512pt" viewBox="0 0 512.19608 512" width="512pt" xmlns="http://www.w3.org/2000/svg"><path d="m367.101562 204.898438c-21.179687-.046876-41.921874 6.027343-59.730468 17.492187v-55.894531c.007812-19.546875 10.308594-37.648438 27.109375-47.644532 16.804687-9.992187 37.625-10.402343 54.808593-1.078124l11.75-.488282c3.195313 3.363282 6.117188 6.980469 8.730469 10.8125l7.765625-21.164062c-6.886718-58.25-57.929687-101.070313-116.492187-97.726563s-104.398438 51.703125-104.605469 110.359375v97.875c-34.386719-17.890625-75.617188-16.535156-108.753906 3.574219-33.136719 20.109375-53.375 56.054687-53.382813 94.816406v25.597657l2.816407.171874c0-.085937 0-.085937.085937-.171874l1.195313.34375c2.808593-6.820313 6.925781-13.023438 12.117187-18.261719 15.878906-15.847657 39.738281-20.578125 60.460937-11.988281 20.726563 8.585937 34.242188 28.808593 34.257813 51.242187v72.53125h-40.277344c-2.277343.011719-4.460937.933594-6.058593 2.5625-2.136719 2.074219-2.984376 5.140625-2.21875 8.019531l8.960937 36.011719 3.839844 15.1875c.941406 3.808594 4.355469 6.484375 8.277343 6.488281h276.820313c3.921875-.003906 7.339844-2.679687 8.277344-6.488281l3.84375-15.1875 8.957031-36.011719c.769531-2.878906-.082031-5.945312-2.21875-8.019531-1.59375-1.628906-3.777344-2.550781-6.058594-2.5625h-40.277344v-72.53125c.015626-22.433594 13.535157-42.65625 34.257813-51.242187 20.726563-8.589844 44.582031-3.859376 60.464844 11.988281 5.191406 5.238281 9.308593 11.441406 12.117187 18.261719l1.191406-.34375c.085938.085937.085938.085937.085938.171874l2.816406-.171874v-25.597657c0-29.421875-11.6875-57.636719-32.492187-78.441406-20.800781-20.804687-49.019531-32.492187-78.441407-32.492187zm0 0" fill="#955ba5"/><path d="m256.167969 315.832031v119.464844h-25.597657v-119.464844c.023438-29.425781-11.675781-57.648437-32.511718-78.421875-17.667969-17.683594-40.792969-28.871094-65.621094-31.742187 4.246094-.519531 8.519531-.773438 12.796875-.769531 17.832031-.019532 35.398437 4.285156 51.203125 12.542968 10.054688 5.199219 19.242188 11.9375 27.21875 19.96875 20.839844 20.773438 32.539062 48.996094 32.511719 78.421875zm0 0" fill="#f57c00"/><path d="m230.570312 315.832031v119.464844h-34.132812v-72.53125c0-44.773437-36.296875-81.066406-81.066406-81.066406-4.289063-.007813-8.570313.335937-12.800782 1.023437-31.460937 4.964844-57.0625 27.960938-65.367187 58.707032-.085937.085937-.085937.085937-.085937.171874l-2.816407-.171874v-25.597657c0-4.308593.257813-8.609375.769531-12.886719 5.9375-51.097656 46.261719-91.386718 97.367188-97.277343 24.828125 2.871093 47.953125 14.058593 65.621094 31.742187 20.835937 20.773438 32.535156 48.996094 32.511718 78.421875zm0 0" fill="#ff9801"/><path d="m196.4375 362.765625v72.53125h-51.203125v-72.53125c-.015625-22.433594-13.53125-42.65625-34.257813-51.242187-20.722656-8.589844-44.582031-3.859376-60.460937 11.988281-5.191406 5.238281-9.308594 11.441406-12.117187 18.261719l-1.195313-.34375c10.753906-39.097657 48.738281-64.238282 88.929687-58.855469 40.191407 5.386719 70.222657 39.640625 70.304688 80.191406zm0 0" fill="#f57c00"/><path d="m68.4375 367.03125c0 18.851562-15.285156 34.132812-34.136719 34.132812-18.847656 0-34.132812-15.28125-34.132812-34.132812s15.285156-34.132812 34.132812-34.132812c9.054688 0 17.738281 3.597656 24.136719 9.996093 6.402344 6.402344 10 15.085938 10 24.136719zm0 0" fill="#fdd834"/><path d="m475.132812 341.429688-1.191406.34375c-8.519531-20.871094-28.828125-34.503907-51.371094-34.476563-14.710937 0-28.820312 5.84375-39.222656 16.246094-10.402344 10.402343-16.246094 24.511719-16.246094 39.222656v72.53125h-51.199218v-72.53125c0-44.773437 36.296875-81.066406 81.066406-81.066406 1.792969 0 3.585938.085937 5.375.167969 34.507812 2.238281 63.769531 26.183593 72.789062 59.5625zm0 0" fill="#6a1b9a"/><path d="m440.832031 310.371094c-5.875-2.027344-12.046875-3.066406-18.261719-3.074219-17.121093-7.132813-36.671874-5.238281-52.101562 5.050781-15.429688 10.285156-24.699219 27.605469-24.699219 46.148438v72.535156h-29.867187v-68.265625c0-44.773437 36.296875-81.066406 81.066406-81.066406 1.792969 0 3.585938.085937 5.375.167969 11.523438 4.066406 21.988281 10.65625 30.636719 19.285156 2.820312 2.894531 5.445312 5.972656 7.851562 9.21875zm0 0" fill="#9d27b0"/><path d="m478.035156 315.832031v25.597657l-2.816406.171874c0-.085937 0-.085937-.085938-.171874-10.75-39.097657-48.738281-64.238282-88.929687-58.855469-40.191406 5.386719-70.21875 39.640625-70.300781 80.191406v72.53125h-59.734375v-119.464844c0-61.265625 49.667969-110.933593 110.933593-110.933593 61.269532 0 110.933594 49.667968 110.933594 110.933593zm0 0" fill="#9d27b0"/><path d="m512.167969 367.03125c0 18.851562-15.28125 34.132812-34.132813 34.132812-18.851562 0-34.132812-15.28125-34.132812-34.132812s15.28125-34.132812 34.132812-34.132812c18.851563 0 34.132813 15.28125 34.132813 34.132812zm0 0" fill="#fdd834"/><path d="m401.664062 117.261719-12.375.511719c-17.183593-9.324219-38.003906-8.914063-54.808593 1.078124-16.800781 9.996094-27.101563 28.097657-27.109375 47.644532v55.894531c-31.886719 20.375-51.1875 55.601563-51.203125 93.441406v-149.335937c-.015625-32.800782 19.734375-62.378906 50.039062-74.933594 30.304688-12.554688 65.1875-5.609375 88.371094 17.589844 2.519531 2.5625 4.886719 5.269531 7.085937 8.109375zm0 0" fill="#c52828"/><path d="m384.597656 108.726562-12.375.511719c-17.183594-9.324219-38.003906-8.910156-54.808594 1.082031-16.800781 9.992188-27.101562 28.09375-27.113281 47.644532v55.894531c-6.753906 4.308594-13.023437 9.34375-18.6875 15.015625-5.839843 5.84375-11.019531 12.3125-15.445312 19.285156v-81.664062c.058593-26.367188 12.910156-51.066406 34.46875-66.246094 21.558593-15.183594 49.144531-18.957031 73.992187-10.125 4.628906 3.066406 8.945313 6.582031 12.882813 10.496094 2.519531 2.558594 4.886719 5.265625 7.085937 8.105468zm0 0" fill="#f44335"/><path d="m417.535156 106.933594-7.765625 21.164062c-17.066406-25.601562-50.175781-42.667968-72.535156-42.667968-44.769531 0-81.066406 36.296874-81.066406 81.066406v149.335937c.027343-29.425781-11.671875-57.648437-32.511719-78.421875-7.976562-8.03125-17.164062-14.769531-27.21875-19.96875v-97.875c.207031-58.65625 46.042969-107.015625 104.605469-110.359375s109.605469 39.476563 116.492187 97.726563zm0 0" fill="#e64c3c"/><path d="m415.65625 445.878906-8.957031 36.011719-3.84375 15.1875c-.9375 3.808594-4.355469 6.484375-8.277344 6.488281h-276.820313c-3.921874-.003906-7.335937-2.679687-8.277343-6.488281l-3.839844-15.1875-8.960937-36.011719c-.765626-2.878906.082031-5.945312 2.21875-8.019531 1.597656-1.628906 3.78125-2.550781 6.058593-2.5625h302.421875c2.28125.011719 4.464844.933594 6.058594 2.5625 2.136719 2.074219 2.988281 5.140625 2.21875 8.019531zm0 0" fill="#c52828"/><path d="m394.324219 445.878906-8.960938 36.011719-3.839843 15.1875c-.941407 3.808594-4.355469 6.484375-8.277344 6.488281h-255.488282c-3.921874-.003906-7.335937-2.679687-8.277343-6.488281l-3.839844-15.1875-8.960937-36.011719c-.765626-2.878906.082031-5.945312 2.21875-8.019531 1.597656-1.628906 3.78125-2.550781 6.058593-2.5625h281.089844c2.28125.011719 4.460937.933594 6.058594 2.5625 2.136719 2.074219 2.984375 5.140625 2.21875 8.019531zm0 0" fill="#f44335"/><path d="m452.4375 136.632812c0 18.851563-15.285156 34.132813-34.136719 34.132813-18.847656 0-34.132812-15.28125-34.132812-34.132813 0-18.851562 15.285156-34.136718 34.132812-34.136718 18.851563 0 34.136719 15.285156 34.136719 34.136718zm0 0" fill="#fdd834"/><g fill="#ffeb3a"><path d="m38.570312 367.03125c.007813 13.050781-7.453124 24.953125-19.199218 30.636719-11.742188-5.691407-19.203125-17.589844-19.203125-30.636719s7.460937-24.945312 19.203125-30.632812c11.746094 5.679687 19.207031 17.582031 19.199218 30.632812zm0 0"/><path d="m482.300781 367.03125c.011719 13.050781-7.449219 24.953125-19.199219 30.636719-11.742187-5.691407-19.199218-17.589844-19.199218-30.636719s7.457031-24.945312 19.199218-30.632812c11.75 5.679687 19.210938 17.582031 19.199219 30.632812zm0 0"/><path d="m422.570312 136.632812c.007813 13.050782-7.453124 24.953126-19.199218 30.632813-11.742188-5.6875-19.203125-17.585937-19.203125-30.632813 0-13.050781 7.460937-24.949218 19.203125-30.636718 11.746094 5.679687 19.207031 17.585937 19.199218 30.636718zm0 0"/></g><path d="m486.570312 334.109375v-18.277344c.0625-40.984375-20.921874-79.132812-55.570312-101.023437-34.648438-21.894532-78.109375-24.460938-115.097656-6.804688v-41.507812c.007812-16.535156 8.71875-31.847656 22.929687-40.304688 14.210938-8.457031 31.820313-8.8125 46.363281-.933594.296876.167969.585938.410157.851563.578126-1.207031 3.472656-1.84375 7.117187-1.878906 10.796874-.035157 17.910157 13.78125 32.804688 31.644531 34.109376 17.867188 1.304687 33.703125-11.417969 36.269531-29.148438 2.570313-17.726562-9-34.421875-26.5-38.242188-8.261719-59.015624-58.621093-103.003906-118.210937-103.2539058-65.964844.0429688-119.425782 53.5039058-119.46875 119.4687498v84.742188c-36.714844-14.113282-78.027344-9.222656-110.433594 13.066406-32.40625 22.292969-51.746094 59.121094-51.699219 98.457031v18.277344c-15.949219 4.066406-26.746093 18.90625-25.6992185 35.332031 1.0429685 16.425782 13.6328125 29.78125 29.9687495 31.789063 16.335938 2.011719 31.789063-7.894531 36.785157-23.574219 4.996093-15.683594-1.878907-32.699219-16.367188-40.507812 1.75-2.722657 3.773438-5.261719 6.03125-7.578126 13.433594-13.4375 33.640625-17.460937 51.195313-10.195312 17.558594 7.265625 29.011718 24.390625 29.019531 43.390625v64h-42.667969c-2.628906 0-5.109375 1.210937-6.726562 3.28125-1.617188 2.074219-2.1875 4.773437-1.550782 7.324219l17.066407 68.265625c.953125 3.796875 4.363281 6.460937 8.277343 6.460937h290.132813c3.914063 0 7.328125-2.664062 8.277344-6.460937l17.066406-68.265625c.640625-2.550782.070313-5.25-1.546875-7.324219-1.617188-2.070313-4.101562-3.28125-6.730469-3.28125h-42.664062v-64c-.03125-18.992187 11.386719-36.132813 28.925781-43.417969s37.738281-3.285156 51.175781 10.136719c2.296875 2.351563 4.355469 4.921875 6.144531 7.679687-14.398437 7.804688-21.207031 24.75-16.210937 40.347657 4.996094 15.597656 20.378906 25.433593 36.632813 23.421875 16.253906-2.007813 28.777343-15.300782 29.820312-31.644532s-9.6875-31.117187-25.554688-35.179687zm-17.367187-24.164063c-2.683594-3.738281-5.644531-7.265624-8.855469-10.558593-25.628906-25.640625-64.179687-33.316407-97.671875-19.441407-33.492187 13.875-55.324219 46.566407-55.304687 82.820313v64h-42.667969v-110.933594c-.070313-55.421875 43.988281-100.828125 99.386719-102.421875 55.398437-1.59375 101.996094 41.199219 105.113281 96.535156zm-170.367187-143.449218v51.40625c-13.90625 9.582031-25.554688 22.082031-34.132813 36.625v-88.03125c-.003906-25.824219 13.726563-49.707032 36.050781-62.699219 22.320313-12.988281 49.867188-13.128906 72.320313-.367187-3.378907-.589844-6.804688-.902344-10.238281-.933594-35.332032.039062-63.960938 28.671875-64 64zm136.535156-29.863282c0 9.425782-7.644532 17.066407-17.070313 17.066407-9.421875 0-17.066406-7.640625-17.066406-17.066407 0-9.425781 7.644531-17.066406 17.066406-17.066406 9.425781 0 17.070313 7.640625 17.070313 17.066406zm-230.402344-17.066406c.039062-56.539062 45.863281-102.363281 102.402344-102.402344 50.488281.207032 93.351562 37.050782 101.136718 86.9375-1.757812.523438-3.46875 1.183594-5.121093 1.980469-.921875-1.023437-1.84375-2.046875-2.765625-2.960937-25.625-25.648438-64.179688-33.328125-97.675782-19.449219-33.496093 13.875-55.328124 46.570313-55.308593 82.824219v88.03125c-10.335938-17.476563-25.039063-31.96875-42.667969-42.042969zm-59.734375 93.863282c16.675781-.027344 33.105469 4.039062 47.839844 11.847656h.066406c9.015625 4.796875 17.265625 10.90625 24.484375 18.132812 19.277344 19.160156 30.085938 45.238282 30.011719 72.421875v110.933594h-42.667969v-64c.019531-36.265625-21.820312-68.964844-55.324219-82.835937-33.503906-13.871094-72.066406-6.179688-97.6875 19.484374-3.203125 3.28125-6.152343 6.800782-8.824219 10.53125 3.140626-54.121093 47.894532-96.425781 102.101563-96.515624zm-110.933594 170.667968c-9.421875 0-17.066406-7.640625-17.066406-17.066406s7.644531-17.066406 17.066406-17.066406c9.425781 0 17.070313 7.640625 17.070313 17.066406s-7.644532 17.066406-17.070313 17.066406zm55.46875-85.332031c-3.378906.019531-6.75.304687-10.085937.851563 22.457031-12.691407 49.960937-12.5 72.242187.5 22.277344 13 35.976563 36.851562 35.976563 62.648437v64h-34.132813v-64c-.039062-35.332031-28.667969-63.964844-64-64zm304.800781 196.265625h-276.804687l-12.796875-51.199219h302.402344zm-36-132.265625v64h-34.132812v-64c0-25.796875 13.699219-49.648437 35.976562-62.648437 22.277344-13 49.785157-13.191407 72.242188-.5-3.335938-.546876-6.707031-.832032-10.085938-.851563-35.332031.035156-63.964843 28.667969-64 64zm119.464844 21.332031c-9.425781 0-17.066406-7.640625-17.066406-17.066406s7.640625-17.066406 17.066406-17.066406c9.425782 0 17.066406 7.640625 17.066406 17.066406s-7.640624 17.066406-17.066406 17.066406zm0 0"/></svg>